<svg width="99" height="28" viewBox="0 0 99 28" fill="none" xmlns="http://www.w3.org/2000/svg">
<path fill-rule="evenodd" clip-rule="evenodd" d="M0 4.82768C0 2.16151 2.06198 0.000152588 4.60555 0.000152588H22.1066C24.6502 0.000152588 26.7122 2.16151 26.7122 4.82768V20.4297C26.7122 23.1881 23.3822 24.3852 21.7672 22.2075L16.7181 15.3994V23.6551C16.7181 26.0546 14.8624 27.9998 12.5732 27.9998H4.60555C2.06198 27.9998 0 25.8385 0 23.1723V4.82768ZM4.60555 3.86218C4.09684 3.86218 3.68444 4.29445 3.68444 4.82768V23.1723C3.68444 23.7055 4.09684 24.1378 4.60555 24.1378H12.7113C12.9657 24.1378 13.0337 23.9217 13.0337 23.6551V12.5842C13.0337 9.82592 16.3637 8.62879 17.9787 10.8065L23.0278 17.6146V4.82768C23.0278 4.29445 23.0759 3.86218 22.5672 3.86218H4.60555Z" fill="#00E0D9"/>
<path fill-rule="evenodd" clip-rule="evenodd" d="M0 4.82768C0 2.16151 2.06198 0.000152588 4.60555 0.000152588H22.1066C24.6502 0.000152588 26.7122 2.16151 26.7122 4.82768V20.4297C26.7122 23.1881 23.3822 24.3852 21.7672 22.2075L16.7181 15.3994V23.6551C16.7181 26.0546 14.8624 27.9998 12.5732 27.9998H4.60555C2.06198 27.9998 0 25.8385 0 23.1723V4.82768ZM4.60555 3.86218C4.09684 3.86218 3.68444 4.29445 3.68444 4.82768V23.1723C3.68444 23.7055 4.09684 24.1378 4.60555 24.1378H12.7113C12.9657 24.1378 13.0337 23.9217 13.0337 23.6551V12.5842C13.0337 9.82592 16.3637 8.62879 17.9787 10.8065L23.0278 17.6146V4.82768C23.0278 4.29445 23.0759 3.86218 22.5672 3.86218H4.60555Z" fill="url(#paint0_linear_7008_308)"/>
<path fill-rule="evenodd" clip-rule="evenodd" d="M0 4.82768C0 2.16151 2.06198 0.000152588 4.60555 0.000152588H22.1066C24.6502 0.000152588 26.7122 2.16151 26.7122 4.82768V20.4297C26.7122 23.1881 23.3822 24.3852 21.7672 22.2075L16.7181 15.3994V23.6551C16.7181 26.0546 14.8624 27.9998 12.5732 27.9998H4.60555C2.06198 27.9998 0 25.8385 0 23.1723V4.82768ZM4.60555 3.86218C4.09684 3.86218 3.68444 4.29445 3.68444 4.82768V23.1723C3.68444 23.7055 4.09684 24.1378 4.60555 24.1378H12.7113C12.9657 24.1378 13.0337 23.9217 13.0337 23.6551V12.5842C13.0337 9.82592 16.3637 8.62879 17.9787 10.8065L23.0278 17.6146V4.82768C23.0278 4.29445 23.0759 3.86218 22.5672 3.86218H4.60555Z" fill="url(#paint1_linear_7008_308)" fill-opacity="0.4"/>
<path d="M22.1065 0.000152588C24.6501 0.000152588 26.712 2.16151 26.712 4.82768V20.4297C26.712 23.1881 23.3821 24.3852 21.767 22.2075L16.718 15.3994V23.6551C16.718 26.0546 14.8622 27.9998 12.573 27.9998C12.8274 27.9998 13.0336 27.7837 13.0336 27.5171V12.5842C13.0336 9.82592 16.3635 8.62879 17.9786 10.8065L23.0276 17.6146V0.965659C23.0276 0.432425 22.6152 0.000152588 22.1065 0.000152588Z" fill="#63F655"/>
<path d="M49.0127 8.01117V15.3346L42.2382 8.01117H38.7122V19.9888H41.928V12.1178L49.3065 19.9888H52.2285V8.01117H49.0127Z" fill="#E3E3E3"/>
<path d="M58.1899 17.3195V15.1978H65.3888V12.6482H58.1899V10.6805H66.9233V8.01117H54.9087V19.9888H67.1029V17.3195H58.1899Z" fill="#E3E3E3"/>
<path d="M75.6484 20.3824C80.1702 20.3824 83.1085 18.0553 83.1085 14C83.1085 9.9447 80.1702 7.61761 75.6484 7.61761C71.1266 7.61761 68.2046 9.9447 68.2046 14C68.2046 18.0553 71.1266 20.3824 75.6484 20.3824ZM75.6484 17.542C73.1345 17.542 71.5837 16.2586 71.5837 14C71.5837 11.7413 73.1508 10.458 75.6484 10.458C78.1623 10.458 79.7131 11.7413 79.7131 14C79.7131 16.2586 78.1623 17.542 75.6484 17.542Z" fill="#E3E3E3"/>
<path d="M95.4344 8.01117V15.3346L88.6599 8.01117H85.1339V19.9888H88.3497V12.1178L95.7282 19.9888H98.6502V8.01117H95.4344Z" fill="#E3E3E3"/>
<defs>
<linearGradient id="paint0_linear_7008_308" x1="26.7122" y1="27.9999" x2="1.97017" y2="1.15571" gradientUnits="userSpaceOnUse">
<stop stop-color="#62F755"/>
<stop offset="1" stop-color="#8FF986" stop-opacity="0"/>
</linearGradient>
<linearGradient id="paint1_linear_7008_308" x1="26.7122" y1="27.9998" x2="10.6565" y2="22.0418" gradientUnits="userSpaceOnUse">
<stop stop-opacity="0.9"/>
<stop offset="1" stop-color="#1A1A1A" stop-opacity="0"/>
</linearGradient>
</defs>
</svg>
