<svg width="20" height="20" viewBox="0 0 20 20" fill="none" xmlns="http://www.w3.org/2000/svg">
<path fill-rule="evenodd" clip-rule="evenodd" d="M6.19905 1.01704C7.38307 0.50613 8.6492 0.25 10 0.25C11.3508 0.25 12.6169 0.50613 13.801 1.01704C14.9898 1.53005 16.0215 2.22503 16.8982 3.10178C17.775 3.97852 18.47 5.01018 18.983 6.19905C19.4939 7.38307 19.75 8.6492 19.75 10C19.75 11.3508 19.4939 12.6169 18.983 13.801C18.47 14.9898 17.775 16.0215 16.8982 16.8982C16.0215 17.775 14.9898 18.47 13.801 18.983C12.6169 19.4939 11.3508 19.75 10 19.75C8.6492 19.75 7.38307 19.4939 6.19905 18.983C5.01018 18.47 3.97852 17.775 3.10178 16.8982C2.22503 16.0215 1.53005 14.9898 1.01704 13.801C0.50613 12.6169 0.25 11.3508 0.25 10C0.25 8.6492 0.50613 7.38307 1.01704 6.19905C1.53005 5.01018 2.22503 3.97852 3.10178 3.10178C3.97852 2.22503 5.01018 1.53005 6.19905 1.01704ZM10 1.75C7.70176 1.75 5.74609 2.55036 4.14822 4.14822C2.55036 5.74609 1.75 7.70176 1.75 10C1.75 12.2982 2.55036 14.2539 4.14822 15.8518C5.74609 17.4496 7.70176 18.25 10 18.25C12.2982 18.25 14.2539 17.4496 15.8518 15.8518C17.4496 14.2539 18.25 12.2982 18.25 10C18.25 7.70176 17.4496 5.74609 15.8518 4.14822C14.2539 2.55036 12.2982 1.75 10 1.75ZM7.94886 4.94095C8.48584 4.48717 9.19521 4.25 10.1 4.25C10.986 4.25 11.7413 4.48632 12.3774 4.95176C12.9891 5.39936 13.3 6.03695 13.3 6.9C13.3 7.41122 13.1842 7.83338 12.9643 8.17799C12.727 8.54968 12.3989 8.94729 11.9758 9.37065C11.394 9.91948 11.0022 10.3852 10.855 10.7582C10.7349 11.0623 10.671 11.4459 10.6544 11.9H9.30244C9.31732 11.1604 9.39943 10.6852 9.52361 10.4368C9.59148 10.3011 9.72732 10.115 9.94692 9.87504C10.1635 9.63845 10.4515 9.36016 10.813 9.03957C11.1275 8.77707 11.3926 8.49035 11.6062 8.17888C11.8329 7.84827 11.95 7.48695 11.95 7.1C11.95 6.6794 11.7875 6.30015 11.4845 5.96881C11.1556 5.60906 10.6779 5.45 10.1 5.45C9.45095 5.45 8.92365 5.64111 8.57045 6.06495C8.34153 6.33966 8.1658 6.60908 8.05178 6.87291L6.86905 6.40699C7.09614 5.84675 7.45466 5.35859 7.94886 4.94095ZM9.23928 14.0393C9.43281 13.8457 9.66452 13.75 9.95 13.75C10.2355 13.75 10.4672 13.8457 10.6607 14.0393C10.8543 14.2328 10.95 14.4645 10.95 14.75C10.95 15.0355 10.8543 15.2672 10.6607 15.4607C10.4672 15.6543 10.2355 15.75 9.95 15.75C9.66452 15.75 9.43281 15.6543 9.23928 15.4607C9.04574 15.2672 8.95 15.0355 8.95 14.75C8.95 14.4645 9.04574 14.2328 9.23928 14.0393Z" fill="#000"/>
</svg>
